
<svg width="1379px" height="2692px" viewBox="0 0 1379 2692" version="1.1" xmlns="http://www.w3.org/2000/svg" xmlns:xlink="http://www.w3.org/1999/xlink">
    <!-- Generator: Sketch 46.2 (44496) - http://www.bohemiancoding.com/sketch -->
    <desc>Created with Sketch.</desc>
    <defs>
        <rect id="path-1" x="0" y="0" width="1181" height="2494.54104" rx="146"></rect>
        <filter x="-26.2%" y="-10.4%" width="157.6%" height="127.3%" filterUnits="objectBoundingBox" id="filter-2">
            <feOffset dx="30" dy="80" in="SourceAlpha" result="shadowOffsetOuter1"></feOffset>
            <feGaussianBlur stdDeviation="100" in="shadowOffsetOuter1" result="shadowBlurOuter1"></feGaussianBlur>
            <feColorMatrix values="0 0 0 0 0   0 0 0 0 0   0 0 0 0 0  0 0 0 0.18 0" type="matrix" in="shadowBlurOuter1"></feColorMatrix>
        </filter>
    </defs>
    <g id="Page-1" stroke="none" stroke-width="1" fill="none" fill-rule="evenodd">
        <g id="iphone-x-light" transform="translate(69.000000, 19.000000)">
            <g id="body">
                <use fill="black" fill-opacity="1" filter="url(#filter-2)" xlink:href="#path-1"></use>
                <use fill="#FFFFFF" fill-rule="evenodd" xlink:href="#path-1"></use>
            </g>
            <path d="M1045.34217,42.5318258 C995.868609,42.5318258 913.644947,42.5318258 908.767272,42.5318258 C896.92149,42.5318258 889.256572,51.4399794 886.46933,67.4746559 C877.062385,124.486839 846.402715,128.406427 837.344176,128.406427 C829.679258,128.406427 351.66712,128.406427 343.653797,128.406427 C334.595257,128.406427 303.587181,124.130513 294.528642,67.4746559 C292.089805,51.4399794 284.424887,42.5318258 272.2307,42.5318258 C267.00462,42.5318258 185.129363,42.5318258 135.655803,42.5318258 C86.1822439,42.5318258 41.9347647,95.9807474 41.9347647,146.935386 C41.9347647,197.890025 41.9347647,2294.15673 41.9347647,2354.73218 C41.9347647,2417.8019 104.647727,2452.00921 134.610587,2452.00921 C150.985639,2452.00921 1030.01233,2452.00921 1046.38738,2452.00921 C1076.35024,2452.00921 1139.06321,2417.8019 1139.06321,2354.73218 C1139.06321,2294.15673 1139.06321,175.797804 1139.06321,146.935386 C1139.41161,95.9807474 1094.81573,42.5318258 1045.34217,42.5318258 Z" id="mask" fill="#EBEBEB" fill-rule="nonzero"></path>
            <g id="logo-sketch" transform="translate(902.952106, 2193.850921)">
                <g id="Top-Mid" transform="translate(0.139761, 0.000000)">
                    <polygon id="Polygon" transform="translate(51.655449, 28.394644) rotate(-180.000000) translate(-51.655449, -28.394644) " points="51.6554492 56.7892876 103.310898 9.25141246e-13 5.68434189e-14 -5.68434189e-14"></polygon>
                </g>
            </g>
        </g>
    </g>
</svg>
