<?xml version="1.0" encoding="UTF-8" standalone="no"?>
<!-- Generator: Adobe Illustrator 16.0.0, SVG Export Plug-In . SVG Version: 6.00 Build 0)  -->

<svg
   xmlns:dc="http://purl.org/dc/elements/1.1/"
   xmlns:cc="http://creativecommons.org/ns#"
   xmlns:rdf="http://www.w3.org/1999/02/22-rdf-syntax-ns#"
   xmlns:svg="http://www.w3.org/2000/svg"
   xmlns="http://www.w3.org/2000/svg"
   xmlns:xlink="http://www.w3.org/1999/xlink"
   xmlns:sodipodi="http://sodipodi.sourceforge.net/DTD/sodipodi-0.dtd"
   xmlns:inkscape="http://www.inkscape.org/namespaces/inkscape"
   version="1.1"
   id="Layer_1"
   x="0px"
   y="0px"
   width="722.53571"
   height="192.79047"
   viewBox="0 0 722.53571 192.79047"
   enable-background="new 0 0 720 342.615"
   xml:space="preserve"
   inkscape:version="0.91 r13725"
   sodipodi:docname="MoEngage_Logo.svg"><metadata
   id="metadata3367"><rdf:RDF><cc:Work
       rdf:about=""><dc:format>image/svg+xml</dc:format><dc:type
         rdf:resource="http://purl.org/dc/dcmitype/StillImage" /><dc:title></dc:title></cc:Work></rdf:RDF></metadata><defs
   id="defs3365" /><sodipodi:namedview
   pagecolor="#ffffff"
   bordercolor="#666666"
   borderopacity="1"
   objecttolerance="10"
   gridtolerance="10"
   guidetolerance="10"
   inkscape:pageopacity="0"
   inkscape:pageshadow="2"
   inkscape:window-width="1280"
   inkscape:window-height="659"
   id="namedview3363"
   showgrid="false"
   fit-margin-top="10"
   fit-margin-left="10"
   fit-margin-right="10"
   fit-margin-bottom="10"
   inkscape:zoom="0.99702056"
   inkscape:cx="205.20184"
   inkscape:cy="-3.2067042"
   inkscape:window-x="-8"
   inkscape:window-y="-8"
   inkscape:window-maximized="1"
   inkscape:current-layer="Layer_1" />
<polygon
   points="655.643,100.263 655.643,242.353 271.155,242.353 271.155,213.968 274.798,213.968 274.798,238.709 652,238.709 652,103.906 274.798,103.906 274.798,126.528 271.155,126.528 271.155,100.263 "
   id="polygon3337"
   transform="matrix(1.2160635,0,0,1.2160635,-84.767829,-111.92617)"
   style="fill:#010101" />
<g
   id="g3339"
   transform="matrix(1.2160635,0,0,1.2160635,-84.767829,-111.92617)">
	<defs
   id="defs3341">
		<rect
   id="SVGID_1_"
   width="720"
   height="342.61499"
   x="0"
   y="0" />
	</defs>
	<clipPath
   id="SVGID_2_">
		<use
   xlink:href="#SVGID_1_"
   overflow="visible"
   id="use3345"
   style="overflow:visible"
   x="0"
   y="0"
   width="100%"
   height="100%" />
	</clipPath>
	<path
   clip-path="url(#SVGID_2_)"
   d="m 77.93,201.117 0,-56.872 8.477,0 0,8.479 c 4.71,-6.595 11.54,-9.891 20.488,-9.891 9.302,0 15.895,4.239 18.25,11.186 4.24,-6.595 12.01,-11.186 21.901,-11.186 12.716,0 20.135,8.124 20.135,22.843 l 0,35.441 -8.477,0 0,-33.557 c 0,-11.186 -4.711,-16.72 -14.13,-16.72 -7.182,0 -14.6,5.652 -18.016,12.245 0.119,3.179 0.237,5.299 0.237,6.359 l 0,31.673 -8.479,0 0,-33.557 c 0,-11.186 -4.709,-16.72 -14.129,-16.72 -3.415,0 -6.712,1.178 -10.125,3.533 -3.299,2.236 -5.889,5.063 -7.655,8.242 l 0,38.502 -8.477,0 z"
   id="path3347"
   inkscape:connector-curvature="0"
   style="fill:#010101" />
	<path
   clip-path="url(#SVGID_2_)"
   d="m 208.03,142.833 c 9.068,0 16.367,2.944 22.138,8.831 5.769,5.769 8.594,12.835 8.594,21.077 0,8.242 -2.825,15.307 -8.594,21.075 -5.771,5.771 -13.07,8.714 -22.138,8.714 -9.065,0 -16.366,-2.942 -22.135,-8.714 -5.769,-5.769 -8.596,-12.833 -8.596,-21.075 0,-8.242 2.827,-15.308 8.596,-21.077 5.769,-5.887 13.07,-8.831 22.135,-8.831 m 15.778,14.013 c -4.12,-4.239 -9.42,-6.36 -15.778,-6.36 -6.358,0 -11.655,2.121 -15.777,6.36 -4.12,4.237 -6.241,9.537 -6.241,15.895 0,6.241 2.121,11.538 6.241,15.778 4.122,4.239 9.419,6.358 15.777,6.358 6.358,0 11.658,-2.119 15.778,-6.358 4.122,-4.24 6.241,-9.537 6.241,-15.778 0,-6.358 -2.119,-11.658 -6.241,-15.895"
   id="path3349"
   inkscape:connector-curvature="0"
   style="fill:#010101" />
	<path
   clip-path="url(#SVGID_2_)"
   d="m 255.004,194.288 c -5.769,-5.535 -8.713,-12.6 -8.713,-21.195 0,-8.477 2.59,-15.541 7.772,-21.075 5.18,-5.652 11.892,-8.479 20.134,-8.479 9.42,0 16.719,4.122 20.369,10.245 3.768,6.004 5.535,12.128 5.535,18.25 l 0,1.766 -48.511,0 c 0.118,7.065 2.59,12.835 7.419,17.19 4.826,4.357 11.066,6.594 18.602,6.594 6.712,0 12.835,-1.766 18.133,-5.299 l 0,5.182 c -4.474,3.415 -10.715,5.063 -18.839,5.063 -8.831,-0.001 -16.132,-2.709 -21.901,-8.242 m 39.799,-25.08 c 0,-8.125 -5.652,-20.723 -20.723,-20.723 -6.595,0 -11.892,2.12 -15.897,6.358 -3.885,4.122 -6.123,8.95 -6.475,14.365 l 43.095,0 z"
   id="path3351"
   inkscape:connector-curvature="0"
   style="fill:#010101" />
	<path
   clip-path="url(#SVGID_2_)"
   d="m 317.757,201.117 -5.298,0 0,-56.164 5.298,0 0,9.772 c 5.063,-6.123 13.894,-11.186 23.902,-11.186 14.248,0 21.784,8.479 21.784,23.433 l 0,34.145 -5.298,0 0,-33.087 c 0,-8.005 -2.473,-13.657 -6.36,-16.13 -3.768,-2.473 -7.299,-3.415 -11.656,-3.415 -4.356,0 -8.596,1.295 -12.833,4.004 -4.239,2.59 -7.418,5.652 -9.539,9.066 l 0,39.562 z"
   id="path3353"
   inkscape:connector-curvature="0"
   style="fill:#010101" />
	<path
   clip-path="url(#SVGID_2_)"
   d="m 426.55,144.953 5.298,0 0,53.691 c 0,8.597 -2.825,15.072 -8.36,19.663 -5.534,4.593 -12.598,6.83 -21.312,6.83 -8.007,0 -15.188,-1.767 -21.664,-5.298 l 0,-5.417 c 6.476,3.885 13.54,5.769 21.31,5.769 14.954,0 24.729,-7.299 24.729,-21.547 l 0,-7.77 c -5.301,7.418 -13.07,11.186 -23.078,11.186 -8.478,0 -15.424,-2.827 -20.725,-8.596 -5.297,-5.769 -8.007,-12.716 -8.007,-20.723 0,-8.007 2.71,-14.837 8.007,-20.606 5.301,-5.769 12.247,-8.596 20.725,-8.596 10.008,0 17.777,3.768 23.078,11.186 l 0,-9.772 z m 0,17.308 c -3.65,-8.125 -12.481,-13.776 -22.019,-13.776 -6.947,0 -12.835,2.355 -17.427,6.947 -4.591,4.593 -6.947,10.362 -6.947,17.31 0,6.946 2.356,12.833 6.947,17.427 4.592,4.591 10.479,6.946 17.427,6.946 9.537,0 18.368,-5.651 22.019,-13.776 l 0,-21.078 z"
   id="path3355"
   inkscape:connector-curvature="0"
   style="fill:#010101" />
	<path
   clip-path="url(#SVGID_2_)"
   d="m 449.855,197.703 c -4.237,-3.299 -6.358,-7.772 -6.358,-13.542 0,-5.533 2.238,-10.008 6.595,-13.305 4.475,-3.415 10.01,-5.063 16.72,-5.063 7.889,0 15.308,2.002 22.018,6.124 l 0,-7.418 c 0,-10.834 -7.299,-16.014 -20.017,-16.014 -6.71,0 -13.068,2.001 -19.074,6.006 l 0,-5.417 c 5.652,-3.651 12.364,-5.535 20.017,-5.535 14.601,0 24.374,6.83 24.374,20.489 l 0,24.962 c 0,4.826 2.355,8.006 6.123,8.006 1.295,0 2.354,-0.234 3.296,-0.707 l 0,4.357 c -1.06,0.589 -2.59,0.943 -4.593,0.943 -5.063,0 -9.183,-3.297 -9.655,-9.774 -6.123,7.185 -14.128,10.715 -24.137,10.715 -5.889,-0.001 -10.952,-1.647 -15.309,-4.827 m 38.974,-11.304 0,-9.302 c -6.71,-4.357 -13.54,-6.595 -20.604,-6.595 -11.893,0 -19.193,5.417 -19.193,13.542 0,9.064 7.77,13.539 17.661,13.539 9.42,0.001 17.544,-5.062 22.136,-11.184"
   id="path3357"
   inkscape:connector-curvature="0"
   style="fill:#010101" />
	<path
   clip-path="url(#SVGID_2_)"
   d="m 560.651,144.953 5.298,0 0,53.691 c 0,8.597 -2.825,15.072 -8.36,19.663 -5.534,4.593 -12.598,6.83 -21.312,6.83 -8.007,0 -15.188,-1.767 -21.664,-5.298 l 0,-5.417 c 6.476,3.885 13.54,5.769 21.31,5.769 14.954,0 24.729,-7.299 24.729,-21.547 l 0,-7.77 c -5.3,7.418 -13.07,11.186 -23.078,11.186 -8.478,0 -15.424,-2.827 -20.724,-8.596 -5.298,-5.769 -8.008,-12.716 -8.008,-20.723 0,-8.007 2.71,-14.837 8.008,-20.606 5.3,-5.769 12.246,-8.596 20.724,-8.596 10.008,0 17.778,3.768 23.078,11.186 l 0,-9.772 z m 0,17.308 c -3.65,-8.125 -12.481,-13.776 -22.019,-13.776 -6.946,0 -12.835,2.355 -17.427,6.947 -4.591,4.593 -6.947,10.362 -6.947,17.31 0,6.946 2.356,12.833 6.947,17.427 4.592,4.591 10.48,6.946 17.427,6.946 9.537,0 18.368,-5.651 22.019,-13.776 l 0,-21.078 z"
   id="path3359"
   inkscape:connector-curvature="0"
   style="fill:#010101" />
	<path
   clip-path="url(#SVGID_2_)"
   d="m 587.019,194.288 c -5.769,-5.535 -8.713,-12.6 -8.713,-21.195 0,-8.477 2.59,-15.541 7.772,-21.075 5.18,-5.652 11.892,-8.479 20.134,-8.479 9.42,0 16.719,4.122 20.369,10.245 3.768,6.004 5.535,12.128 5.535,18.25 l 0,1.766 -48.511,0 c 0.117,7.065 2.59,12.835 7.419,17.19 4.825,4.357 11.065,6.594 18.602,6.594 6.712,0 12.835,-1.766 18.133,-5.299 l 0,5.182 c -4.474,3.415 -10.715,5.063 -18.839,5.063 -8.831,-0.001 -16.132,-2.709 -21.901,-8.242 m 39.799,-25.08 c 0,-8.125 -5.652,-20.723 -20.724,-20.723 -6.595,0 -11.893,2.12 -15.896,6.358 -3.886,4.122 -6.123,8.95 -6.476,14.365 l 43.096,0 z"
   id="path3361"
   inkscape:connector-curvature="0"
   style="fill:#010101" />
</g>
</svg>