<svg xmlns="http://www.w3.org/2000/svg" viewBox="0 0 458.327 458.327" width="512" height="512">
	<g fill="#52ae56">
		<path d="M160.417 223.248l-43.11-4.605c-6.823-.73-12.92-3.524-17.75-7.69-7.446 1.7-14.69-2.835-16.627-9.974l-16.575-61.066.01 291.84c0 11.77 9.54 21.31 21.31 21.31s21.31-9.54 21.31-21.31V266.05c0-2.556 2.07-4.628 4.626-4.628 2.528 0 4.575 2.047 4.575 4.574v165.76c0 11.77 9.54 21.31 21.31 21.31s21.31-9.54 21.31-21.31l-.388-208.508z"/>
		<path d="M124.21 154.01l11.158 1.192-11.692-43.075-46.902 12.73 13.57 49.996c5.093-13.526 18.828-22.45 33.867-20.843z"/>
		<path d="M203.09 133.053v-.002c-.116-23.054-18.966-41.81-42.022-41.81l-80.766.34-33.58-12.728 30.104-38.097c-.034.646-.052 1.295-.052 1.95 0 20.325 16.478 36.803 36.805 36.803 20.325 0 36.803-16.478 36.803-36.804S133.905 5.9 113.58 5.9c-12.35 0-23.27 6.087-29.946 15.42-.882-3.778-2.99-7.297-6.27-9.89-7.693-6.08-18.862-4.77-24.943 2.925l-48.595 61.5C.315 80.295-.865 86.145.643 91.6c1.51 5.455 5.528 9.864 10.82 11.87l51.443 19.5c.786-5.774 4.983-10.208 10.2-11.624l46.902-12.73c6.96-1.89 14.96 1.67 17.324 10.382l12.974 47.8 10.11 1.08V133.25c0-1.973 1.597-3.574 3.57-3.58 1.972-.004 3.578 1.588 3.588 3.56v.003l.202 40.257-45.133-4.82c-9.755-1.044-18.502 6.02-19.544 15.77-1.042 9.753 6.02 18.503 15.77 19.545l64.878 6.93c5.014.536 10.034-1.086 13.79-4.48 3.75-3.39 5.88-8.214 5.854-13.268l-.3-60.114zM447.474 97.197c5.44-2.007 9.44-6.708 10.547-12.4s-.836-11.55-5.128-15.45L387.11 9.575c-6.782-6.163-17.278-5.66-23.44 1.122-3.03 3.335-4.44 7.568-4.294 11.742-6.915-9.605-18.184-15.863-30.92-15.863-13.576 0-25.485 7.108-32.23 17.8.62-4.675-.74-9.582-4.16-13.346-6.163-6.782-16.66-7.285-23.44-1.12l-65.784 59.77c-4.292 3.9-6.236 9.758-5.13 15.45s5.107 10.394 10.55 12.4l71.522 26.372-.196 306.64c0 12.18 9.873 22.053 22.053 22.053s22.054-9.873 22.054-22.053V259.034c0-2.63 2.13-4.76 4.76-4.76s4.762 2.13 4.762 4.76v171.508c0 12.18 9.873 22.053 22.053 22.053s22.052-9.873 22.052-22.053l-.196-307.406 70.348-25.94zm-90.74-1.915l-12.302 32.14-8.806 23.008 4.935-23.246c.347-1.633.096-3.335-.708-4.797l-6.777-12.325 6.025-10.958c.418-.76.403-1.684-.038-2.43s-1.244-1.204-2.11-1.204h-16.536c-.867 0-1.67.458-2.11 1.204s-.457 1.67-.04 2.43l6.026 10.958-6.802 12.37c-.79 1.436-1.047 3.103-.728 4.708l4.315 23.29-8.595-23.6-11.952-30.65-55.128-20.327 45.543-41.38c.403-.368.78-.75 1.14-1.147-1.115 3.582-1.717 7.39-1.717 11.338 0 21.035 17.052 38.087 38.087 38.087s38.087-17.05 38.087-38.086c0-3.535-.492-6.954-1.393-10.202l45.185 41.057-53.6 19.762z"/>
	</g>
</svg>
