<svg xmlns="http://www.w3.org/2000/svg" viewBox="0 0 535.658 535.658" width="512" height="512">
	<g fill="#52ae56">
		<path d="M295.027 91.43c25.202 0 45.705-20.507 45.705-45.715C340.732 20.508 320.23 0 295.027 0c-25.207 0-45.714 20.508-45.714 45.715 0 25.208 20.507 45.716 45.714 45.716zM164.08 279.878c2.674 0 5.183-1.036 7.064-2.917l32.96-32.958c1.88-1.882 2.917-4.39 2.917-7.064s-1.035-5.183-2.916-7.064l-9.64-9.64c.462-.396.915-.805 1.35-1.238 4.54-4.542 6.96-10.64 6.846-17.212 1.874-1.243 3.54-2.814 4.896-4.664l15.702-21.41c2.268-3.092 7.515-8.37 10.593-10.655l1.254-.93-13.608 54.243c-.168.67-.263 1.332-.317 1.985l-11.246 47.8c-.972 4.13-3.594 11.35-5.5 15.15l-27.288 54.337c-2.446 4.87-2.85 10.402-1.135 15.576 1.715 5.174 5.342 9.37 10.213 11.816 2.723 1.368 5.638 2.098 8.665 2.17.16.003.318.005.477.005 7.77 0 14.764-4.31 18.25-11.252l27.29-54.34c3.307-6.588 7.07-16.957 8.755-24.12l10.925-46.44h18.93c.01.008.016.017.025.023l26.137 22.702-12.928 51.716c-2.73 10.916 3.932 22.017 14.848 24.746 1.63.407 3.3.613 4.962.613 9.373 0 17.507-6.36 19.782-15.46l13.413-53.657c3.238-12.95-1.727-28.703-11.805-37.456l-25.397-22.06 8.708-34.718c5.186 10.155 16.116 18.897 27.094 21.508l36.9 8.778c1.476.352 2.987.53 4.494.53 8.993 0 16.73-6.12 18.814-14.88 2.47-10.38-3.968-20.837-14.35-23.307l-36.55-8.694c-.544-.28-1.605-1.152-1.983-1.633l-17.932-39.223c-3.14-6.872-10.054-11.312-17.612-11.312h-53.17c-4.026 0-8.176 2.03-10.582 3.814l-41.607 30.886c-6.15 4.565-14.204 12.667-18.734 18.845l-15.7 21.41c-.42.57-.796 1.16-1.147 1.765-5.936.292-11.422 2.69-15.558 6.825-.435.435-.843.888-1.238 1.35l-9.64-9.64c-1.88-1.88-4.39-2.917-7.064-2.917s-5.183 1.036-7.064 2.917l-32.96 32.96c-1.88 1.882-2.917 4.39-2.917 7.064s1.036 5.184 2.918 7.065l55.342 55.343c1.882 1.884 4.39 2.92 7.065 2.92zm3.953-88.665c1.33-1.33 2.96-2.29 4.763-2.84.01.08.013.162.025.243.787 5.11 3.516 9.607 7.685 12.665 2.95 2.164 6.375 3.424 9.98 3.69-.483 2.145-1.518 4.084-3.064 5.63-.436.436-.912.822-1.41 1.18l-19.155-19.157c.356-.495.74-.973 1.178-1.41zM436.9 402.838c0-4.763-3.577-8.77-8.318-9.32l-10.528-1.233c-1.563-5.163-3.71-10.115-6.395-14.746l6.564-8.26c2.958-3.742 2.652-9.102-.71-12.466l-13.187-13.188c-1.77-1.77-4.124-2.742-6.63-2.742-2.106 0-4.18.722-5.84 2.033l-8.797 6.967c-4.354-2.313-8.922-4.175-13.606-5.545l-1.3-11.25c-.548-4.716-4.553-8.292-9.323-8.32h-18.64c-4.764 0-8.77 3.577-9.32 8.32l-1.298 11.152c-4.936 1.405-9.715 3.343-14.234 5.772l-8.968-7.1c-1.658-1.31-3.732-2.03-5.84-2.03-2.505 0-4.86.974-6.628 2.743l-13.19 13.188c-3.36 3.363-3.667 8.724-.707 12.47l6.815 8.595c-2.708 4.772-4.868 9.862-6.43 15.157l-10.765 1.254c-4.717.55-8.294 4.554-8.32 9.323v18.64c0 4.767 3.578 8.773 8.317 9.32l10.578 1.253c1.498 5.31 3.567 10.36 6.16 15.042l-6.336 7.985c-2.957 3.745-2.65 9.107.712 12.47l13.188 13.186c1.77 1.77 4.123 2.742 6.63 2.742 2.106 0 4.18-.722 5.837-2.032l7.87-6.222c4.588 2.59 9.53 4.676 14.715 6.21l1.144 9.817c.545 4.716 4.547 8.292 9.317 8.32h18.598c4.765 0 8.772-3.577 9.32-8.32l1.1-9.487c5.453-1.5 10.728-3.66 15.705-6.433l7.674 6.07c1.658 1.31 3.732 2.032 5.84 2.032 2.506 0 4.86-.975 6.628-2.744l13.188-13.186c3.364-3.364 3.67-8.724.71-12.467l-6.068-7.673c2.848-5.102 5.055-10.54 6.57-16.193l9.877-1.142c4.713-.546 8.29-4.55 8.32-9.32v-18.644zm-66.84 31.218c-5.53 5.53-12.897 8.576-20.748 8.576-7.85 0-15.218-3.046-20.747-8.576-5.53-5.53-8.576-12.897-8.576-20.747s3.044-15.22 8.575-20.75c5.53-5.53 12.898-8.575 20.747-8.575 7.85 0 15.22 3.046 20.75 8.576 5.53 5.53 8.575 12.9 8.575 20.75 0 7.848-3.046 15.215-8.576 20.746zM267.518 445.29c-.417-4.994-4.503-8.863-9.498-9.002l-7.76-.248c-1.706-4.22-3.865-8.248-6.43-12l4.25-6.428c2.756-4.152 1.967-9.73-1.843-12.98l-10.434-8.796c-1.78-1.495-4.042-2.32-6.366-2.32-2.51 0-4.897.945-6.723 2.658l-6.023 5.65c-3.775-1.614-7.765-2.86-11.886-3.713l-1.663-8.19c-.99-4.842-5.46-8.274-10.473-7.852l-13.59 1.146c-4.992.418-8.86 4.505-8.998 9.498l-.273 8.275c-4.114 1.574-8.002 3.548-11.58 5.88l-7.056-4.682c-1.61-1.07-3.49-1.637-5.432-1.637-2.912 0-5.66 1.265-7.547 3.477l-8.796 10.435c-3.216 3.83-3.07 9.457.337 13.087l5.517 5.89c-1.936 4.237-3.396 8.69-4.35 13.264l-7.795 1.594c-4.893 1-8.268 5.502-7.85 10.472l1.145 13.592c.42 4.99 4.507 8.86 9.502 9l7.752.226c1.65 4.362 3.757 8.48 6.278 12.267l-4.07 6.157c-2.758 4.15-1.97 9.73 1.842 12.98l10.435 8.796c1.782 1.496 4.043 2.32 6.367 2.32 2.51 0 4.896-.944 6.72-2.657l5.283-4.956c4.127 1.872 8.452 3.285 12.885 4.21l1.403 6.98c.883 4.622 4.93 7.977 9.627 7.978.274 0 .55-.012.828-.035l13.587-1.147c4.99-.417 8.862-4.503 9.002-9.496l.22-6.813c4.483-1.654 8.793-3.86 12.836-6.567l5.872 3.882c1.612 1.07 3.49 1.637 5.433 1.637 2.913 0 5.662-1.266 7.548-3.478l8.798-10.435c3.214-3.83 3.07-9.457-.336-13.087l-4.797-5.12c2.05-4.568 3.53-9.327 4.41-14.178l7.036-1.425c4.893-.998 8.27-5.5 7.85-10.478l-1.192-13.63zm-56.11 30.41c-4.778 5.672-11.79 8.924-19.234 8.924-5.93 0-11.684-2.106-16.206-5.933-5.13-4.32-8.268-10.392-8.834-17.096-.567-6.705 1.507-13.22 5.842-18.343 4.776-5.67 11.786-8.92 19.233-8.92 5.928 0 11.683 2.105 16.205 5.93 5.13 4.323 8.267 10.397 8.833 17.102.567 6.704-1.507 13.216-5.84 18.34z"/>
	</g>
</svg>
